# xmcd
#
# Track frame offsets:
#	150
#	19645
#	37605
#	60080
#	76737
#	87452
#	109187
#	130835
#	143092
#	157967
#	174335
#
# Disc length: 2633 seconds
#
# Revision: 47
# Processed by: cddbd v1.5.2PL0 Copyright (c) Steve Scherf et al.
# Submitted via: audiograbber 1.83.01
#
DISCID=720a470b
DTITLE=Enya - The Memory Of Trees
DYEAR=1995
DGENRE=Celtic
TTITLE0=The Memory Of Trees
TTITLE1=Anywhere Is
TTITLE2=Pax Deorum
TTITLE3=Athair Ar Neamh
TTITLE4=From Where I Am
TTITLE5=China Roses
TTITLE6=Hope Has A Place
TTITLE7=Tea-House Moon
TTITLE8=Once You Had Gold
TTITLE9=La Soñadora
TTITLE10=On My Way Home
EXTD=YEAR: 1995
EXTT0=
EXTT1=
EXTT2=
EXTT3=
EXTT4=
EXTT5=
EXTT6=
EXTT7=
EXTT8=
EXTT9=
EXTT10=
PLAYORDER=
